Coordinates
version=1
nRows=16
nColumns=40
inDegrees=yes

Units are S.I. units (second, meters, Newtons, ...)
If the header above contains a line with 'inDegrees', this indicates whether rotational values are in degrees (yes) or radians (no).

endheader
time	pelvis_tilt	pelvis_list	pelvis_rotation	pelvis_tx	pelvis_ty	pelvis_tz	hip_flexion_r	hip_adduction_r	hip_rotation_r	knee_angle_r	knee_angle_r_beta	ankle_angle_r	subtalar_angle_r	mtp_angle_r	hip_flexion_l	hip_adduction_l	hip_rotation_l	knee_angle_l	knee_angle_l_beta	ankle_angle_l	subtalar_angle_l	mtp_angle_l	lumbar_extension	lumbar_bending	lumbar_rotation	arm_flex_r	arm_add_r	arm_rot_r	elbow_flex_r	pro_sup_r	wrist_flex_r	wrist_dev_r	arm_flex_l	arm_add_l	arm_rot_l	elbow_flex_l	pro_sup_l	wrist_flex_l	wrist_dev_l
      0.00000000	     -0.15750260	     13.40849271	    -60.00688904	      0.08490887	      1.02160750	      0.02785576	     44.89003971	    -14.32692545	    -10.21338240	     43.21291099	      0.75420758	    -12.74030741	      0.00000000	      0.00000000	      7.85769020	      7.83892910	     -6.57538235	     15.73129342	      0.27456287	      9.40241879	      0.00000000	      0.00000000	     -2.04478838	      3.24073626	      4.10688791	    -22.81711753	    -29.78507974	      5.72031996	    135.17236062	     88.25058125	      0.00000000	      0.00000000	     -0.58977098	    -33.92873161	     34.00956729	    117.03814186	     43.77270455	      0.00000000	      0.00000000
      0.00277778	      0.05480743	     13.35510919	    -60.23879736	      0.08488065	      1.02141302	      0.02889423	     44.74223725	    -14.22280539	     -9.75239725	     43.20720148	      0.75410793	    -12.60282469	      0.00000000	      0.00000000	      7.90762876	      7.92579633	     -6.69734362	     16.23541133	      0.28336138	      9.68092259	      0.00000000	      0.00000000	     -2.13910214	      3.04427629	      4.12826506	    -22.91733282	    -29.72840497	      5.56694458	    135.33227796	     88.23809954	      0.00000000	      0.00000000	     -0.46556316	    -33.89010102	     34.01995766	    117.12541832	     43.81867233	      0.00000000	      0.00000000
      0.00555556	      0.03428314	     13.22215667	    -60.42064569	      0.08480777	      1.02122696	      0.02996980	     44.53238563	    -13.88903625	     -9.45550573	     43.12053934	      0.75259539	    -12.34991948	      0.00000000	      0.00000000	      8.03929937	      7.74189128	     -6.83804766	     16.77573921	      0.29279188	      9.76292587	      0.00000000	      0.00000000	     -2.18240622	      3.11467725	      4.27711054	    -23.17960611	    -29.61788284	      5.17987831	    135.53260028	     88.28318817	      0.00000000	      0.00000000	     -0.20196947	    -33.73869618	     34.19535129	    117.15558915	     43.96407081	      0.00000000	      0.00000000
      0.00833333	      0.08041848	     13.18599328	    -60.51223046	      0.08485838	      1.02105880	      0.03071516	     44.43153964	    -13.78874687	     -9.29279253	     43.07733170	      0.75184127	    -12.33109014	      0.00000000	      0.00000000	      8.11721695	      7.71624273	     -6.86344415	     17.12537291	      0.29889414	      9.98399366	      0.00000000	      0.00000000	     -2.18493999	      3.07555467	      4.20069529	    -23.20306610	    -29.59135655	      5.08590851	    135.63151773	     88.27478482	      0.00000000	      0.00000000	     -0.24814195	    -33.68526814	     34.09038424	    117.20922962	     44.04805989	      0.00000000	      0.00000000
      0.01111111	      0.06303022	     13.07045660	    -60.67704971	      0.08460583	      1.02082733	      0.03192648	     44.21457451	    -13.45300058	     -9.02000940	     42.96091453	      0.74980941	    -12.16525615	      0.00000000	      0.00000000	      8.28863963	      7.51563957	     -7.05370304	     17.72610712	      0.30937893	     10.12770321	      0.00000000	      0.00000000	     -2.21594084	      3.10902362	      4.22248664	    -23.32494966	    -29.49225663	      4.93309407	    135.74502893	     88.27510280	      0.00000000	      0.00000000	     -0.11990111	    -33.60530810	     34.11282872	    117.32605720	     44.21021466	      0.00000000	      0.00000000
      0.01388889	      0.03135733	     13.04062756	    -60.69359690	      0.08462742	      1.02053847	      0.03292157	     44.03706988	    -13.27936075	     -8.90424230	     42.84932543	      0.74786181	    -11.87130251	      0.00000000	      0.00000000	      8.54502468	      7.38807075	     -7.04095521	     18.26631624	      0.31880736	     10.00579955	      0.00000000	      0.00000000	     -2.15499227	      3.12189919	      4.00989185	    -23.37214075	    -29.45979955	      4.81394293	    135.86294779	     88.28741028	      0.00000000	      0.00000000	     -0.17698496	    -33.50060330	     33.97417205	    117.49170545	     44.32468301	      0.00000000	      0.00000000
      0.01666667	      0.10504505	     12.81098445	    -60.97650850	      0.08441668	      1.02045358	      0.03416210	     43.71188906	    -12.93029488	     -8.58672534	     42.78158983	      0.74667960	    -11.74599854	      0.00000000	      0.00000000	      8.53008508	      7.21029341	     -7.33677491	     18.89953439	      0.32985910	     10.55332606	      0.00000000	      0.00000000	     -2.34247129	      3.15049075	      4.25928164	    -23.63341397	    -29.32628995	      4.37951567	    136.08955145	     88.28223788	      0.00000000	      0.00000000	      0.22147858	    -33.40254150	     34.26496795	    117.45292761	     44.55032704	      0.00000000	      0.00000000
      0.01944444	     -0.02234022	     12.83389745	    -60.88036791	      0.08441017	      1.02016016	      0.03466105	     43.67370239	    -12.80370660	     -8.59806313	     42.75760427	      0.74626097	    -11.44187577	      0.00000000	      0.00000000	      8.83826332	      7.04646135	     -7.24740047	     19.28817250	      0.33664212	     10.25734213	      0.00000000	      0.00000000	     -2.19280335	      3.22829909	      3.96999199	    -23.51617713	    -29.38392711	      4.46454008	    136.09859654	     88.28143512	      0.00000000	      0.00000000	      0.17071068	    -33.35815639	     34.16808141	    117.55216629	     44.64131052	      0.00000000	      0.00000000
      0.02222222	      0.17645841	     12.55824986	    -61.34161536	      0.08402184	      1.02017185	      0.03620870	     43.22853187	    -12.37767670	     -8.07662615	     42.60672933	      0.74362771	    -11.28946593	      0.00000000	      0.00000000	      8.72321096	      6.90929286	     -7.72751050	     19.95614797	      0.34830049	     10.81890529	      0.00000000	      0.00000000	     -2.50032129	      3.15223333	      4.50922696	    -24.07047859	    -29.15063163	      3.83265274	    136.42499132	     88.28007372	      0.00000000	      0.00000000	      0.68915222	    -33.26555027	     34.55924560	    117.49627775	     45.00012372	      0.00000000	      0.00000000
      0.02500000	      0.15384374	     12.52622551	    -61.34867942	      0.08420396	      1.01988100	      0.03731992	     43.03119911	    -12.25050038	     -8.03632905	     42.54431605	      0.74253839	    -10.98017302	      0.00000000	      0.00000000	      8.97907388	      6.78515376	     -7.74639877	     20.52080344	      0.35815559	     10.65697370	      0.00000000	      0.00000000	     -2.42169713	      3.16706043	      4.26305957	    -24.10367157	    -29.07983099	      3.70063265	    136.55124249	     88.31272834	      0.00000000	      0.00000000	      0.60927102	    -33.06279215	     34.41491660	    117.61007062	     45.14034466	      0.00000000	      0.00000000
      0.02777778	      0.24810227	     12.29088871	    -61.67378568	      0.08379319	      1.01982884	      0.03865772	     42.63965798	    -11.87710106	     -7.72904442	     42.43945834	      0.74070828	    -10.68465456	      0.00000000	      0.00000000	      8.99010674	      6.57045940	     -8.16311138	     21.19726299	      0.36996203	     11.02859986	      0.00000000	      0.00000000	     -2.63080712	      3.15346948	      4.54665157	    -24.34366720	    -28.92566554	      3.28244016	    136.74505125	     88.30944801	      0.00000000	      0.00000000	      1.05087834	    -33.01228344	     34.75640525	    117.58134728	     45.47825319	      0.00000000	      0.00000000
      0.03055556	      0.32216137	     12.13524461	    -61.85263417	      0.08379248	      1.01970808	      0.03982191	     42.29346961	    -11.65859932	     -7.57033109	     42.32938455	      0.73878713	    -10.36808907	      0.00000000	      0.00000000	      9.10442993	      6.41588236	     -8.41457915	     21.86185331	      0.38156132	     11.11240531	      0.00000000	      0.00000000	     -2.73385702	      3.14022282	      4.64370147	    -24.59543799	    -28.82890683	      2.89631777	    136.94674695	     88.31557560	      0.00000000	      0.00000000	      1.35460290	    -32.86929451	     34.96721433	    117.57551914	     45.80609148	      0.00000000	      0.00000000
      0.03333333	      0.35707321	     12.04557273	    -61.93713970	      0.08376863	      1.01960038	      0.04057335	     42.07180452	    -11.52035717	     -7.46594424	     42.24833071	      0.73737247	    -10.15637249	      0.00000000	      0.00000000	      9.22947850	      6.30037708	     -8.57079488	     22.35012725	      0.39008331	     11.14137298	      0.00000000	      0.00000000	     -2.78060363	      3.13149035	      4.64824450	    -24.72413967	    -28.77624074	      2.69390300	    137.06366608	     88.32142042	      0.00000000	      0.00000000	      1.52060894	    -32.81175509	     35.05940496	    117.57274861	     46.07097714	      0.00000000	      0.00000000
      0.03611111	      0.33398981	     12.06841853	    -61.88774317	      0.08385881	      1.01930525	      0.04146554	     41.89489830	    -11.44249934	     -7.47284394	     42.13704769	      0.73543022	     -9.79665079	      0.00000000	      0.00000000	      9.61827093	      6.18969608	     -8.52177473	     22.97711713	      0.40102635	     10.74395552	      0.00000000	      0.00000000	     -2.66424064	      3.10627514	      4.27476872	    -24.62895645	    -28.83937721	      2.71877502	    137.11770161	     88.31946554	      0.00000000	      0.00000000	      1.43498085	    -32.69531121	     34.90770784	    117.72252941	     46.13668614	      0.00000000	      0.00000000
      0.03888889	      0.57933177	     11.80438779	    -62.32434900	      0.08357350	      1.01930817	      0.04312463	     41.38384649	    -11.15050714	     -7.06934883	     42.03933484	      0.73372481	     -9.31386671	      0.00000000	      0.00000000	      9.57280563	      6.04545280	     -9.19873112	     23.83758670	      0.41604437	     11.30832056	      0.00000000	      0.00000000	     -2.95562752	      2.96459335	      4.68170736	    -25.01582644	    -28.62147558	      2.25523099	    137.33991689	     88.32246039	      0.00000000	      0.00000000	      1.88093658	    -32.54469839	     35.20701167	    117.69325603	     46.46970629	      0.00000000	      0.00000000
      0.04166667	      0.55432853	     11.56893600	    -62.43772431	      0.08355343	      1.01932647	      0.04429889	     40.90356758	    -10.85777854	     -7.05995599	     41.86541687	      0.73068937	     -8.77485168	      0.00000000	      0.00000000	      9.77038449	      5.72241987	     -9.47498467	     24.65604192	      0.43032911	     11.17422685	      0.00000000	      0.00000000	     -3.08913278	      3.08480922	      4.80938646	    -25.37315027	    -28.51553414	      1.74221685	    137.55329160	     88.35157027	      0.00000000	      0.00000000	      2.32588971	    -32.37389300	     35.54379480	    117.54673318	     47.28044897	      0.00000000	      0.00000000
